<?xml version="1.0" encoding="utf-8"?>
<!-- Generator: Adobe Illustrator 26.1.0, SVG Export Plug-In . SVG Version: 6.00 Build 0)  -->
<svg version="1.1" id="Layer_1" xmlns="http://www.w3.org/2000/svg" xmlns:xlink="http://www.w3.org/1999/xlink" x="0px" y="0px"
	 viewBox="0 0 612 792" style="enable-background:new 0 0 612 792;" xml:space="preserve">
<style type="text/css">
	.st0{fill:none;stroke:#878787;stroke-width:4;stroke-miterlimit:10;}
</style>
<g>
	<circle class="st0" cx="347.48" cy="362.22" r="115.65"/>
	<circle class="st0" cx="347.48" cy="362.22" r="97.39"/>
	<path class="st0" d="M364.74,352.11c4.06,7.34,3.5,18.37-4.01,25.01c-7.91,6.99-20.78,6.72-28.23-1.67
		c-7.33-8.26-6.59-20.9,1.67-28.23c6.03-5.36,14.86-6.28,21.7-3.19"/>
	<circle class="st0" cx="347.48" cy="362.22" r="12.12"/>
	<line class="st0" x1="347.48" y1="246.57" x2="347.42" y2="255.67"/>
	<line class="st0" x1="347.48" y1="477.87" x2="347.43" y2="470.33"/>
	<path class="st0" d="M347.48,442.7c-35.37,0-65.41-22.82-76.21-54.53"/>
	<path class="st0" d="M390.35,294.09c22.6,14.25,37.62,39.44,37.62,68.13"/>
	<path class="st0" d="M348.93,280.33c3.69-0.25,8.98-0.21,15.11,1.26c6.52,1.56,11.5,4.14,14.74,6.15"/>
</g>
</svg>
