<?xml version="1.0" encoding="utf-8"?>
<!-- Generator: Adobe Illustrator 26.1.0, SVG Export Plug-In . SVG Version: 6.00 Build 0)  -->
<svg version="1.1" id="Layer_1" xmlns="http://www.w3.org/2000/svg" xmlns:xlink="http://www.w3.org/1999/xlink" x="0px" y="0px"
	 viewBox="0 0 612 792" style="enable-background:new 0 0 612 792;" xml:space="preserve">
<style type="text/css">
	.st0{fill:none;stroke:#949494;stroke-width:8;stroke-miterlimit:10;}
	.st1{fill:none;stroke:#949494;stroke-width:4;stroke-miterlimit:10;}
	.st2{fill:none;stroke:#949494;stroke-width:8;stroke-miterlimit:10;stroke-dasharray:19.812,19.812;}
</style>
<path class="st0" d="M226,472c-44.33,21.67-88.67,43.33-133,65V260c44.67-16,89.33-32,134-48C226.67,298.67,226.33,385.33,226,472z"
	/>
<path class="st0" d="M226,472c46.33,21.67,92.67,43.33,139,65V260c-46-16-92-32-138-48C226.67,298.67,226.33,385.33,226,472z"/>
<path class="st0" d="M504.99,480.5C458.33,499.33,411.66,518.17,365,537c0-92.33,0-184.67,0-277c47.1-19.46,94.2-38.91,141.3-58.37
	C505.86,294.59,505.43,387.54,504.99,480.5z"/>
<path class="st1" d="M252.07,573.78"/>
<path class="st1" d="M241.41,560.74"/>
<path class="st1" d="M694.15,462.96"/>
<g>
	<g>
		<path class="st0" d="M143.04,448.74c-0.72-3.33-1.16-6.65-1.34-9.9"/>
		<path class="st2" d="M143.97,419.25c2.78-8.93,7.94-16.34,15.06-20.88c16.56-10.56,38.09-2.03,43.26,0.02
			c10.41,4.12,12.81,8.56,29.03,18.94c12.12,7.76,22.7,12.9,29.63,16c14.22,4.51,55.23,15.47,104.04,0
			c48.76-15.45,75.96-47.98,85-59.85c7.62-13.43,17.04-34.26,20.15-61.04c0.41-3.56,0.69-7.01,0.86-10.34"/>
		<path class="st0" d="M471.19,292.21c-0.05-3.5-0.21-6.84-0.44-9.99"/>
	</g>
</g>
<line class="st0" x1="143.04" y1="339.33" x2="182.74" y2="378.19"/>
<line class="st0" x1="180.23" y1="338.92" x2="144.71" y2="381.84"/>
</svg>
