<?xml version="1.0" encoding="utf-8"?>
<!-- Generator: Adobe Illustrator 26.1.0, SVG Export Plug-In . SVG Version: 6.00 Build 0)  -->
<svg version="1.1" id="Layer_1" xmlns="http://www.w3.org/2000/svg" xmlns:xlink="http://www.w3.org/1999/xlink" x="0px" y="0px"
	 viewBox="0 0 612 792" style="enable-background:new 0 0 612 792;" xml:space="preserve">
<style type="text/css">
	.st0{fill:none;stroke:#949494;stroke-width:4;stroke-miterlimit:10;}
	.st1{fill:none;stroke:#949494;stroke-width:4;stroke-miterlimit:10;stroke-dasharray:9.7136,9.7136;}
</style>
<line class="st0" x1="194" y1="303" x2="373" y2="302.19"/>
<path class="st0" d="M194,295v11.14c0,7.46-6.04,13.5-13.5,13.5l0,0c-7.46,0-13.5-6.04-13.5-13.5V295"/>
<path class="st0" d="M401,295v11.14c0,7.46-6.04,13.5-13.5,13.5l0,0c-7.46,0-13.5-6.04-13.5-13.5V295"/>
<path class="st0" d="M169,295v-8.99c0-5.95,4.82-10.77,10.77-10.77h0.45c5.95,0,10.77,4.82,10.77,10.77V295"/>
<line class="st0" x1="137" y1="295" x2="223" y2="295"/>
<line class="st0" x1="344" y1="295" x2="431" y2="295"/>
<path class="st0" d="M377,295v-8.99c0-5.95,4.82-10.77,10.77-10.77h0.45c5.95,0,10.77,4.82,10.77,10.77V295"/>
<path class="st0" d="M316.93,339h-66.86c-14.95,0-27.07-12.12-27.07-27.07V303h121v8.93C344,326.88,331.88,339,316.93,339z"/>
<rect x="267" y="339" class="st0" width="37" height="19"/>
<path class="st0" d="M325.67,383.96c-27.26,0.05-54.52,0.1-81.78,0.15c0.69-4.54,1.38-9.09,2.07-13.63c0.1-1.05,0.67-5.52,4.54-8.98
	c3.41-3.06,7.27-3.43,8.45-3.5h52.11c2.02,0.14,5.72,0.71,8.45,3.5c1.71,1.75,2.39,3.7,3.5,8.45
	C323.85,373.56,324.83,378.3,325.67,383.96z"/>
<g>
	<g>
		<line class="st0" x1="248.93" y1="384.11" x2="247.03" y2="388.74"/>
		<line class="st1" x1="243.34" y1="397.72" x2="223.04" y2="447.14"/>
		<line class="st0" x1="221.2" y1="451.63" x2="219.3" y2="456.26"/>
	</g>
</g>
<g>
	<g>
		<line class="st0" x1="259.88" y1="384.11" x2="259.09" y2="389.05"/>
		<line class="st1" x1="257.54" y1="398.64" x2="249.02" y2="451.38"/>
		<line class="st0" x1="248.25" y1="456.17" x2="247.45" y2="461.11"/>
	</g>
</g>
<g>
	<g>
		<line class="st0" x1="272.24" y1="384.11" x2="272.03" y2="389.11"/>
		<line class="st1" x1="271.61" y1="398.81" x2="269.29" y2="452.19"/>
		<line class="st0" x1="269.08" y1="457.04" x2="268.87" y2="462.03"/>
	</g>
</g>
<g>
	<g>
		<line class="st0" x1="284.78" y1="384.07" x2="284.78" y2="389.07"/>
		<line class="st1" x1="284.78" y1="398.79" x2="284.78" y2="452.21"/>
		<line class="st0" x1="284.78" y1="457.07" x2="284.78" y2="462.07"/>
	</g>
</g>
<g>
	<g>
		<line class="st0" x1="320.79" y1="384.11" x2="322.69" y2="388.74"/>
		<line class="st1" x1="326.38" y1="397.72" x2="346.67" y2="447.14"/>
		<line class="st0" x1="348.52" y1="451.63" x2="350.42" y2="456.26"/>
	</g>
</g>
<g>
	<g>
		<line class="st0" x1="309.83" y1="384.11" x2="310.63" y2="389.05"/>
		<line class="st1" x1="312.18" y1="398.64" x2="320.69" y2="451.38"/>
		<line class="st0" x1="321.47" y1="456.17" x2="322.27" y2="461.11"/>
	</g>
</g>
<g>
	<g>
		<line class="st0" x1="297.47" y1="384.11" x2="297.69" y2="389.11"/>
		<line class="st1" x1="298.11" y1="398.81" x2="300.42" y2="452.19"/>
		<line class="st0" x1="300.63" y1="457.04" x2="300.85" y2="462.03"/>
	</g>
</g>
</svg>
