<?xml version="1.0" encoding="utf-8"?>
<!-- Generator: Adobe Illustrator 26.1.0, SVG Export Plug-In . SVG Version: 6.00 Build 0)  -->
<svg version="1.1" id="Layer_1" xmlns="http://www.w3.org/2000/svg" xmlns:xlink="http://www.w3.org/1999/xlink" x="0px" y="0px"
	 viewBox="0 0 612 792" style="enable-background:new 0 0 612 792;" xml:space="preserve">
<style type="text/css">
	.st0{fill:none;stroke:#A7A7A7;stroke-width:5;stroke-miterlimit:10;}
</style>
<path class="st0" d="M410.5,415.7h-208c-10.1,0-18.2-8.2-18.2-18.2V228.6c0-10.1,8.2-18.2,18.2-18.2h208c10.1,0,18.2,8.2,18.2,18.2
	v168.9C428.8,407.5,420.6,415.7,410.5,415.7z"/>
<path class="st0" d="M191.7,305.6"/>
<path class="st0" d="M289.1,298.2l-47.2-40.5c-3-2.6-7.3-2.6-10.3,0l-47.2,40.5"/>
<path class="st0" d="M277.1,305.6"/>
<path class="st0" d="M322.2,313"/>
<path class="st0" d="M428.8,305.6l-54.1-45.8c-2.9-2.5-7.2-2.5-10.1,0l-54.1,45.8"/>
<path class="st0" d="M421.3,313"/>
<line class="st0" x1="399.4" y1="278.3" x2="428.6" y2="263.1"/>
<line class="st0" x1="274.9" y1="286.9" x2="334.4" y2="286.3"/>
<path class="st0" d="M304,286.6c-3.1,11.6-8,18.8-12.1,23.3c-3.5,3.9-7.2,6.6-6.4,8.4c1,2.2,7.5,0.2,18.2,0.7
	c8.2,0.3,21.3,2.1,21.8,5.8c0.3,2.5-5.3,5.1-9.8,7.1c-17.5,8-30,5.5-33,12.4c-0.9,2-1,4.9,0.3,7.1c4,6.8,18.9,2.2,46.9,3
	c13.7,0.4,22.3,0.7,23.6,4.4c1.6,4.9-10,13.9-20,18.7c-12.8,6.1-17.5,2.8-32.2,8.4c-8.4,3.2-26.1,11.6-25.1,19
	c1,7.4,20.5,10.3,23.4,10.8"/>
<circle class="st0" cx="221.8" cy="232.9" r="9.7"/>
</svg>
