<?xml version="1.0" encoding="utf-8"?>
<!-- Generator: Adobe Illustrator 26.1.0, SVG Export Plug-In . SVG Version: 6.00 Build 0)  -->
<svg version="1.1" id="Layer_1" xmlns="http://www.w3.org/2000/svg" xmlns:xlink="http://www.w3.org/1999/xlink" x="0px" y="0px"
	 viewBox="0 0 612 792" style="enable-background:new 0 0 612 792;" xml:space="preserve">
<style type="text/css">
	.st0{fill:none;stroke:#B3B3B3;stroke-width:5;stroke-miterlimit:10;}
</style>
<path class="st0" d="M397.56,426.63H214.44c0-8.3,0-16.59,0-24.89"/>
<path class="st0" d="M214.44,335.23c0-33.53,0-67.06,0-100.6c61.04,0,122.07,0,183.11,0V339"/>
<path class="st0" d="M397.56,337.94V234.63c30.06-11.26,60.12-22.52,90.19-33.78c0.4,82.96,0.79,165.93,1.19,248.89
	c-30.46-7.7-60.91-15.41-91.37-23.11v-24.85"/>
<path class="st0" d="M214.44,402.11v24.52c-30.46,7.7-60.91,15.41-91.37,23.11c0.4-82.96,0.79-165.93,1.19-248.89
	c30.06,11.26,60.12,22.52,90.19,33.78V339.3"/>
<polygon class="st0" points="306,326.81 262.15,402.76 349.85,402.76 "/>
<polygon class="st0" points="221.15,326.81 177.3,402.76 265,402.76 "/>
<polygon class="st0" points="390.7,326.81 346.86,402.76 434.55,402.76 "/>
<circle class="st0" cx="265.22" cy="292.56" r="20.89"/>
<path class="st0" d="M378.85,296.33c-0.1,2.14-1.73,3.51-1.96,3.7c-2.11,1.72-4.65,1.12-4.93,1.05c-0.22,0.52-0.64,1.32-1.42,2.08
	c-0.54,0.53-1.09,0.87-1.51,1.09c0.03,0.3,0.03,0.76-0.11,1.28c-0.84,3.16-5.91,4.67-9.19,4.67c-2.45,0-4.67-0.48-6.31-1.29
	c-0.94,0.07-1.9,0.1-2.87,0.1c-2.1,0-4.13-0.15-6.07-0.43c-2.77,0.92-5.13,1.37-6.82,1.61c-4.27,0.61-5.36,0.04-5.78-0.22
	c-1.48-0.9-2.74-2.84-2.52-4.89c0.11-1,0.54-1.76,0.85-2.21c-0.19-0.07-1.76-0.7-2.26-2.38c-0.34-1.16,0.02-2.14,0.15-2.44
	c-3-0.02-4.99-2.38-4.81-4.21c0.18-1.89,2.74-3.87,5.77-3.13c0.04-0.4,0.27-2.45,2.03-3.83c0.99-0.77,2.03-0.99,2.56-1.06
	c0.04-0.47,0.16-1.16,0.5-1.89c1-2.12,3.09-2.95,3.94-3.29c4.51-1.79,9.52,1.71,9.93,2c0.29-0.28,1.17-1.04,2.52-1.19
	c1.88-0.21,3.19,0.92,3.4,1.12c0.32-0.45,3.1-4.28,7.56-4.23c3.33,0.04,7.41,2.25,7.41,4.89c0,0.86-0.33,1.66-0.92,2.36
	c0.42-0.02,2.66-0.08,4.47,1.64c1.37,1.3,1.69,2.87,1.78,3.41C377.12,291.52,378.97,293.93,378.85,296.33z"/>
</svg>
